<?xml version="1.0" encoding="UTF-8" standalone="no"?>
<svg
   width="284px"
   height="284px"
   version="1.1"
   id="svg2"
   sodipodi:docname="icon.svg"
   inkscape:version="1.3 (0e150ed6c4, 2023-07-21)"
   inkscape:export-filename="icon.png"
   inkscape:export-xdpi="90"
   inkscape:export-ydpi="90"
   xmlns:inkscape="http://www.inkscape.org/namespaces/inkscape"
   xmlns:sodipodi="http://sodipodi.sourceforge.net/DTD/sodipodi-0.dtd"
   xmlns="http://www.w3.org/2000/svg"
   xmlns:svg="http://www.w3.org/2000/svg">
  <defs
     id="defs2" />
  <sodipodi:namedview
     id="namedview2"
     pagecolor="#505050"
     bordercolor="#eeeeee"
     borderopacity="1"
     inkscape:showpageshadow="0"
     inkscape:pageopacity="0"
     inkscape:pagecheckerboard="0"
     inkscape:deskcolor="#505050"
     inkscape:zoom="2.0897887"
     inkscape:cx="92.593092"
     inkscape:cy="117.23673"
     inkscape:window-width="1920"
     inkscape:window-height="996"
     inkscape:window-x="-8"
     inkscape:window-y="716"
     inkscape:window-maximized="1"
     inkscape:current-layer="svg2" />
  <g
     id="g1">
    <path
       d="m 40,87 h 154.04655 c 0.005,-18.006491 -0.004,-32.882069 -0.0459,-32.999378 L 245.49999,102 l -51.5,48 c 0,0 0.0155,-13.83457 0.0288,-31 H 39.99999 Z M 194,54 c 2.2e-4,-2.1e-4 4.4e-4,0 6.7e-4,6.2e-4 z"
       fill="#55ff19"
       stroke="none"
       id="path1"
       sodipodi:insensitive="true" />
  </g>
  <g
     id="g3"
     style="display:inline">
    <path
       style="fill:#258b00;fill-opacity:1"
       d="M 39.975398,119.11428 236.99975,200.99904 237.0148,168.9858 39.999603,86.99948 Z"
       id="path3"
       sodipodi:nodetypes="ccccc" />
    <path
       style="fill:#258b00;stroke-width:0.353553;fill-opacity:1"
       d="M 138.50454,159.8921 40.305086,119.03738 v -15.87571 c 0,-8.731643 0.119325,-15.809925 0.265165,-15.729516 0.145841,0.08041 44.37537,18.501186 98.287839,40.935066 l 98.02268,40.78886 v 15.83112 c 0,8.70712 -0.0398,15.81503 -0.0884,15.79537 -0.0486,-0.0197 -44.27814,-18.42038 -98.28784,-40.89047 z"
       id="path4" />
    <path
       style="fill:#258b00;stroke-width:0.353553;fill-opacity:1"
       d="m 228.92582,197.48693 c -4.278,-1.79972 -48.46775,-20.18582 -98.19945,-40.85802 L 40.305086,119.04311 V 103.19415 87.345189 l 0.795496,0.308101 c 0.437522,0.169456 17.580442,7.298322 38.095377,15.84192 20.514936,8.54361 64.386491,26.80793 97.492351,40.58738 l 60.19246,25.05356 v 15.84109 c 0,8.7126 -0.0398,15.82777 -0.0884,15.81149 -0.0486,-0.0163 -3.58856,-1.50209 -7.86656,-3.3018 z"
       id="path5" />
    <path
       style="fill:#258b00;stroke-width:0.353553;fill-opacity:1"
       d="M 163.69522,170.38667 C 123.54039,153.67841 79.350639,135.29548 65.495765,129.53571 L 40.305086,119.06342 V 103.20071 87.338005 l 1.679379,0.670613 c 0.923658,0.368837 22.362252,9.282637 47.641319,19.808442 25.279066,10.52581 68.752876,28.62453 96.608466,40.21938 l 50.64652,21.08153 v 15.85018 c 0,8.7176 -0.0398,15.83825 -0.0884,15.82368 -0.0486,-0.0146 -32.94233,-13.6969 -73.09716,-30.40516 z"
       id="path6" />
    <path
       style="fill:#258b00;stroke-width:0.353553;fill-opacity:1"
       d="M 172.1805,173.90884 C 136.69258,159.15394 92.502825,140.77821 73.981047,133.07389 L 40.305086,119.06603 v -15.85807 c 0,-14.954448 0.03526,-15.845035 0.618719,-15.629138 1.373608,0.508272 195.737585,81.436018 195.846655,81.545088 0.0647,0.0647 0.0762,7.2039 0.0256,15.86484 l -0.0921,15.74718 z"
       id="path7" />
  </g>
  <g
     id="g2">
    <path
       d="M 237,169 H 82.953445 c -0.0047,-18.00649 0.0041,-32.88207 0.04589,-32.99938 L 31.500007,184 l 51.5,48 c 0,0 -0.01545,-13.83457 -0.02876,-31 H 237.00001 Z M 83,136 c -2.2e-4,-2.1e-4 -4.4e-4,0 -6.7e-4,6.2e-4 z"
       fill="#55ff19"
       stroke="none"
       id="path2"
       sodipodi:insensitive="true" />
  </g>
</svg>
